HIERARCHY
ROOT root
{
	OFFSET	0	13.1	24.9
	CHANNELS 6  Xposition Yposition Zposition Xrotation Yrotation Zrotation
	JOINT spine_1
	{
		OFFSET	0	9.99999	0
		CHANNELS 3  Xrotation Yrotation Zrotation
		JOINT spine_2
		{
			OFFSET	0	112	-10
			CHANNELS 3  Xrotation Yrotation Zrotation
			JOINT spine_3
			{
				OFFSET	0	206.5	19.3
				CHANNELS 3  Xrotation Yrotation Zrotation
				JOINT spine_4
				{
					OFFSET	0	110.4	14.6
					CHANNELS 3  Xrotation Yrotation Zrotation
					JOINT neck_1
					{
						OFFSET	0	71.8	-50.3
						CHANNELS 3  Xrotation Yrotation Zrotation
						JOINT neck_2
						{
							OFFSET	0	86.2	-25.8
							CHANNELS 3  Xrotation Yrotation Zrotation
							JOINT head_ee
							{
								OFFSET	0	179.8	-8.7
								CHANNELS 3  Xrotation Yrotation Zrotation
								End Site
								{
									OFFSET	1	0	0
								}
							}
						}
					}
					JOINT left_clavicle
					{
						OFFSET	-43.2	22.4	-70.8
						CHANNELS 3  Xrotation Yrotation Zrotation
						JOINT left_shoulder
						{
							OFFSET	-93.9	-5.79999	48.7
							CHANNELS 3  Xrotation Yrotation Zrotation
							JOINT left_elbow
							{
								OFFSET	-291.4	-30.8	15.2
								CHANNELS 3  Xrotation Yrotation Zrotation
								JOINT left_lowarm_twist
								{
									OFFSET	-110.7	-3.89999	13.6
									CHANNELS 3  Xrotation Yrotation Zrotation
									JOINT left_hand
									{
										OFFSET	-110.7	-3.89999	13.6
										CHANNELS 3  Xrotation Yrotation Zrotation
										JOINT left_ee
										{
											OFFSET	-80.8	-5.10001	12.1
											CHANNELS 3  Xrotation Yrotation Zrotation
											End Site
											{
												OFFSET	1	0	0
											}
										}
									}
								}
							}
						}
					}
					JOINT right_clavicle
					{
						OFFSET	43.2	22.4	-70.8
						CHANNELS 3  Xrotation Yrotation Zrotation
						JOINT right_shoulder
						{
							OFFSET	93.9	-5.79999	48.7
							CHANNELS 3  Xrotation Yrotation Zrotation
							JOINT right_elbow
							{
								OFFSET	291.4	-30.8	15.2
								CHANNELS 3  Xrotation Yrotation Zrotation
								JOINT right_lowarm_twist
								{
									OFFSET	110.7	-3.89999	13.6
									CHANNELS 3  Xrotation Yrotation Zrotation
									JOINT right_hand
									{
										OFFSET	110.7	-3.89999	13.6
										CHANNELS 3  Xrotation Yrotation Zrotation
										JOINT right_ee
										{
											OFFSET	80.8	-5.10001	12.1
											CHANNELS 3  Xrotation Yrotation Zrotation
											End Site
											{
												OFFSET	1	0	0
											}
										}
									}
								}
							}
						}
					}
				}
			}
		}
	}
	JOINT left_hip
	{
		OFFSET	-82.8	-127.5	0.300001
		CHANNELS 3  Xrotation Yrotation Zrotation
		JOINT left_knee
		{
			OFFSET	-28.2	-396.7	2.2
			CHANNELS 3  Xrotation Yrotation Zrotation
			JOINT left_ankle
			{
				OFFSET	-11.7	-411.3	35.4
				CHANNELS 3  Xrotation Yrotation Zrotation
				JOINT left_toes
				{
					OFFSET	0	-60	-88.6
					CHANNELS 3  Xrotation Yrotation Zrotation
					JOINT left_foot_ee
					{
						OFFSET	-22.5	-16.5	-42.2
						CHANNELS 3  Xrotation Yrotation Zrotation
						End Site
						{
							OFFSET	1	0	0
						}
					}
				}
			}
		}
	}
	JOINT right_hip
	{
		OFFSET	82.8	-127.5	0.300001
		CHANNELS 3  Xrotation Yrotation Zrotation
		JOINT right_knee
		{
			OFFSET	28.2	-396.7	2.2
			CHANNELS 3  Xrotation Yrotation Zrotation
			JOINT right_ankle
			{
				OFFSET	11.7	-411.3	35.4
				CHANNELS 3  Xrotation Yrotation Zrotation
				JOINT right_toes
				{
					OFFSET	0	-60	-88.6
					CHANNELS 3  Xrotation Yrotation Zrotation
					JOINT right_foot_ee
					{
						OFFSET	22.5	-16.5	-42.2
						CHANNELS 3  Xrotation Yrotation Zrotation
						End Site
						{
							OFFSET	1	0	0
						}
					}
				}
			}
		}
	}
}
MOTION
Frames: 7
Frame Time: 0.02
1031.61 749.73 -675.625 -157.229 -76.2198 -159.61 2.14273 -0.142555 1.41233 2.14381 -0.232127 1.4004 2.13795 -0.471762 1.33883 2.13554 -0.25442 1.39652 -10.2012 8.1172 0.0468188 -10.2808 15.2639 2.11077 -0.0 0.0 -0.0 1.32616 4.38821 2.9673 6.76742 -25.3943 62.3233 1.17417 -30.1834 0.316643 -30.755 -2.02583 3.32078 -0.818774 23.4121 4.61092 -0.0 0.0 -0.0 8.40647 25.6452 -15.3586 -28.4204 21.022 -63.0766 1.03484 27.1403 -0.249789 -16.0347 0.832163 -1.86714 1.20808 18.03 -0.392595 0.0 0.0 0.0 12.5581 -3.14699 9.63123 -0.685277 0.02761 0.101539 -8.91637 27.9579 1.40623 12.5647 -0.0 -0.0 -0.0 0.0 -0.0 36.5699 26.0422 -1.39952 -60.8184 2.289 -8.61498 -25.4328 -28.8676 -4.07697 -19.8541 0.0 0.0 0.0 0.0 0.0 
1049.07 748.403 -674.065 -158.796 -74.0406 -161.355 2.32702 0.135187 1.31065 2.32797 0.0515203 1.3166 2.32903 -0.173438 1.30614 2.32665 0.0350012 1.31714 -11.0953 8.30291 0.545896 -11.1987 15.3394 2.76267 -0.0 0.0 -0.0 1.1121 5.5534 2.6844 7.5553 -25.3407 61.2188 1.31465 -33.0722 0.390335 -29.8467 -1.94164 3.24029 -1.37018 23.1127 1.3124 -0.0 0.0 -0.0 8.13528 24.4885 -14.8751 -28.7915 20.8082 -64.3196 0.939441 24.9555 -0.207891 -17.9594 0.966354 -2.0738 1.05816 17.1388 0.213044 0.0 0.0 0.0 11.1146 -1.03803 9.62346 1.16549 -0.0497448 -0.171927 -8.34318 27.7055 1.31279 13.4655 -0.0 -0.0 -0.0 0.0 -0.0 37.4947 23.5179 -1.33708 -54.5062 1.63685 -7.89303 -23.5917 -26.9963 -3.7387 -22.236 0.0 0.0 0.0 0.0 0.0 
1066.32 741.99 -677.052 -159.743 -72.0274 -162.753 2.74881 0.340735 1.282 2.74968 0.258475 1.30108 2.75539 0.0430595 1.32581 2.75302 0.251887 1.30237 -11.6682 8.90182 0.738035 -11.8034 16.3872 3.19627 -0.0 0.0 -0.0 0.954201 6.20517 2.46121 8.26472 -25.3075 60.4767 1.48124 -36.2676 0.485136 -29.1204 -1.87525 3.17499 -1.865 22.1909 -1.9729 -0.0 0.0 -0.0 7.91496 23.6807 -14.4663 -29.1474 20.6357 -65.1458 0.874338 23.4182 -0.181215 -19.4282 1.07341 -2.22844 0.942832 15.6786 0.344181 0.0 0.0 0.0 9.7211 0.509619 10.3952 0.389925 -0.0162527 -0.0576294 -7.94697 27.6057 1.24899 15.0945 -0.0 -0.0 -0.0 0.0 -0.0 37.9383 20.5315 -2.30874 -50.2273 1.24203 -7.36533 -22.0281 -25.7841 -3.46654 -23.3673 0.0 0.0 0.0 0.0 0.0 
1082.32 747.18 -677.998 -161.874 -70.6608 -164.923 3.00668 0.478025 1.22311 3.00743 0.399233 1.25104 3.01597 0.196035 1.29848 3.01384 0.39863 1.25123 -12.0702 9.32761 0.87138 -12.2315 17.1377 3.50825 -0.0 0.0 -0.0 0.800504 6.72353 2.23608 8.77162 -25.2293 59.8847 1.607 -38.519 0.56152 -28.613 -1.82937 3.12887 -2.21405 21.562 -4.31736 -0.0 0.0 -0.0 7.73662 22.8779 -14.1476 -29.7863 20.3752 -65.8479 0.823128 22.1832 -0.161369 -20.4561 1.15068 -2.33503 0.86311 14.6271 0.420762 0.0 0.0 0.0 8.73141 1.58105 10.9527 -0.235088 0.00960858 0.0347971 -7.67714 27.5349 1.2056 16.232 -0.0 -0.0 -0.0 0.0 -0.0 38.277 18.8227 -2.31042 -47.2316 0.989701 -6.9793 -20.9011 -24.9333 -3.27363 -24.1481 0.0 0.0 0.0 0.0 0.0 
1099.53 747.765 -676.398 -164.136 -69.6247 -167.707 2.9229 0.494469 1.26137 2.92369 0.413209 1.29028 2.93284 0.201681 1.33972 2.93057 0.410717 1.29107 -13.3012 10.4089 2.08128 -13.5288 18.5346 5.18897 -0.0 0.0 -0.0 0.543228 7.71234 1.8793 9.14063 -24.4101 58.8934 1.79822 -41.6903 0.684751 -28.2612 -1.79779 3.09666 -2.74677 20.6515 -7.93803 -0.0 0.0 -0.0 7.27195 19.4214 -13.4177 -31.6022 21.4576 -66.0073 0.693685 18.9644 -0.115863 -22.5293 1.3123 -2.54574 0.56463 11.1316 0.921768 0.0 0.0 0.0 7.36657 2.29879 11.3552 -0.723501 0.0291141 0.107212 -6.40484 28.5933 1.01044 16.4101 -0.0 -0.0 -0.0 0.0 -0.0 39.6758 16.7634 -2.16568 -43.421 0.698632 -6.47043 -22.326 -23.977 -3.48156 -24.9433 0.0 0.0 0.0 0.0 0.0 
1122.22 746.903 -672.873 -164.199 -68.9289 -167.499 3.10193 0.443042 1.14646 3.10259 0.369197 1.17232 3.10997 0.180834 1.2157 3.1081 0.370548 1.17189 -14.0853 11.2242 2.88402 -14.3672 19.6764 6.35114 -0.0 0.0 -0.0 0.375712 8.38679 1.65597 9.40023 -23.8791 58.2043 1.9845 -44.5056 0.81206 -28.0766 -1.78131 3.07968 -3.14915 19.5938 -10.9431 -0.0 0.0 -0.0 7.05658 16.8687 -13.1341 -32.6504 22.2461 -66.1551 0.591556 16.3328 -0.0848912 -23.7625 1.41204 -2.66829 0.334002 7.38507 0.879186 0.0 0.0 0.0 5.34922 2.7045 12.078 -1.14228 0.0453461 0.169431 -4.21242 28.7765 0.662925 16.9045 -0.0 -0.0 -0.0 0.0 -0.0 40.1183 15.4238 -1.90712 -36.4657 0.25736 -5.49714 -23.1043 -22.7522 -3.58318 -25.5001 0.0 0.0 0.0 0.0 0.0 
1137.95 748.358 -669.783 -163.945 -68.3215 -167.066 3.26724 0.41639 1.12562 3.26788 0.343925 1.14983 3.27457 0.162811 1.18906 3.27277 0.348546 1.14843 -13.5775 11.5811 1.76815 -13.8948 20.9889 5.32936 -0.0 0.0 -0.0 0.121168 8.78744 1.25416 9.1466 -23.515 57.1727 2.12813 -46.5059 0.91453 -27.3899 -1.72047 3.01606 -3.20878 16.2587 -13.1884 -0.0 0.0 -0.0 6.80989 15.2544 -12.7064 -32.8043 22.9137 -66.0034 0.520463 14.4574 -0.0660153 -24.3638 1.46163 -2.72727 0.329583 2.92396 -0.978319 0.0 0.0 0.0 3.82932 2.39345 12.232 -2.03585 0.078455 0.302567 -0.6978 28.539 0.108916 16.8999 -0.0 -0.0 -0.0 0.0 -0.0 40.4447 14.4019 -1.80779 -29.5822 -0.0598432 -4.48926 -24.1037 -21.31 -3.71605 -26.0825 0.0 0.0 0.0 0.0 0.0 
